<svg width="99" height="38" viewBox="0 0 99 38" fill="none" xmlns="http://www.w3.org/2000/svg">
<path d="M99 0.308052C98.085 1.65959 97.1753 3.01403 96.2511 4.35925C96.2511 9.32983 96.2511 14.2998 96.2511 19.2703C73.2532 18.1999 52.0139 20.1472 29.7108 25.9294C29.169 25.4368 28.6268 24.9453 28.0884 24.4494C27.5568 25.2408 27.0333 26.037 26.5099 26.8342C15.7569 30.1645 9.13861 33.1017 -1 37.9607L0.976659 31.2673L0.993152 15.9203L-0.964081 12.4157C12.2166 7.58476 25.1908 4.59536 38.9246 2.69916C59.7753 -0.179552 77.6327 -0.327781 99 0.308052Z" fill="#2A282A"/>
<path d="M81.117 15.3442C81.4134 15.7948 81.7196 16.2491 82.0252 16.6996C80.2826 16.716 78.54 16.7571 76.7973 16.802C77.0938 16.335 77.3999 15.8681 77.7061 15.4012V9.46785V3.53017C77.3999 3.07149 77.0938 2.62101 76.7973 2.16663C78.54 2.15402 80.2826 2.1376 82.0252 2.14581C81.7196 2.60019 81.4134 3.05507 81.117 3.51766C81.117 5.48772 81.117 7.46117 81.117 9.43122C81.117 11.4008 81.117 13.3746 81.117 15.3442ZM23.7394 11.1429C23.48 10.8928 23.2297 10.6388 22.9795 10.3853C22.414 10.5161 21.8486 10.647 21.2925 10.7866C21.0328 11.1632 20.7825 11.5442 20.5323 11.9169C20.5323 13.7305 20.5323 15.5451 20.5323 17.3592C20.5323 19.1733 20.5323 20.9873 20.5323 22.8014C20.7825 23.0428 21.0328 23.2804 21.2925 23.518C21.8486 23.3379 22.414 23.1661 22.9795 22.9936C23.2297 22.6088 23.48 22.224 23.7394 21.8347V16.491V11.1429ZM17.2879 11.4664C17.9091 10.5118 18.5392 9.56594 19.1697 8.62435C21.144 8.16946 23.1184 7.72329 25.1019 7.30564C25.7233 7.93237 26.3442 8.563 26.9743 9.18542C26.9743 11.3476 26.9743 13.5093 26.9743 15.6716C26.9743 17.8382 26.9743 20.0004 26.9743 22.1626C26.3442 23.0878 25.7233 24.0173 25.1019 24.9632C23.1184 25.5779 21.144 26.2162 19.1697 26.8797C18.5392 26.3108 17.9091 25.7454 17.2879 25.164V18.3129V11.4664ZM44.503 4.20134C44.9941 5.86823 45.4938 7.53113 45.9858 9.18922C46.4759 10.8401 46.9873 12.4819 47.4876 14.1241V9.70545V5.27864C47.2002 4.84067 46.913 4.40221 46.6348 3.96434C48.2755 3.78809 49.9163 3.62005 51.5662 3.45631C51.2697 3.95994 50.982 4.45965 50.6946 4.96327C50.6946 7.35058 50.6946 9.74218 50.6946 12.1255C50.6946 14.5128 50.6946 16.9005 50.6946 19.2834C49.2862 19.5089 47.8772 19.7421 46.4682 19.9797C45.94 18.4032 45.4098 16.8189 44.8922 15.2337C44.3716 13.6374 43.8449 12.0314 43.3258 10.422C43.3258 11.8634 43.3258 13.309 43.3258 14.7547C43.3258 16.2003 43.3258 17.6455 43.3258 19.0868C43.6131 19.5253 43.9004 19.9594 44.1969 20.3891C42.6024 20.6924 41.0177 21.0076 39.4325 21.335C39.7106 20.7904 39.998 20.2457 40.2852 19.701V12.9445V6.1835C39.998 5.73732 39.7106 5.29065 39.4325 4.84838C41.1196 4.62339 42.8067 4.4022 44.503 4.20134ZM53.1234 3.3211C56.6275 3.03045 60.131 2.78085 63.6352 2.57177C64.1262 3.85755 64.6173 5.13952 65.1088 6.41289C64.469 6.08932 63.8298 5.76585 63.1991 5.44228C62.1335 5.51233 61.0766 5.5857 60.0201 5.65525C60.0201 7.48189 60.0201 9.29982 60.0201 11.1221C60.0201 12.9445 60.0201 14.7629 60.0201 16.5851C60.3257 17.0313 60.6318 17.4775 60.9374 17.9198C59.232 18.1168 57.5266 18.3215 55.8206 18.5427C56.1176 18.0183 56.414 17.4982 56.7197 16.9821V11.4538C56.7197 9.61518 56.7197 7.76823 56.7294 5.92568C55.6724 6.01976 54.6154 6.11835 53.5589 6.22063C52.9192 6.6586 52.2799 7.10087 51.6497 7.54324C52.1409 6.13035 52.6319 4.72578 53.1234 3.3211ZM67.7598 12.5311C68.7795 12.4655 69.7988 12.408 70.8186 12.3549C70.2812 10.3115 69.7433 8.25974 69.2151 6.20382C68.724 8.30468 68.2417 10.4177 67.7598 12.5306V12.5311ZM72.5333 2.2444C72.1904 2.76443 71.8567 3.28447 71.5231 3.80831C72.1069 5.75374 72.7008 7.70257 73.2841 9.63589C73.8688 11.5726 74.4613 13.5055 75.0547 15.4384C75.4347 15.901 75.8239 16.3596 76.213 16.8266C74.3965 16.8923 72.5887 16.9821 70.7814 17.0887C71.0595 16.6383 71.3377 16.1916 71.625 15.7411C71.5231 15.4055 71.4207 15.0656 71.3286 14.7301C69.9842 14.8116 68.6496 14.8937 67.3145 14.9836C67.2218 15.3524 67.1291 15.7209 67.0461 16.0854C67.3145 16.4823 67.5926 16.8836 67.8707 17.2853C66.0542 17.4287 64.2373 17.5881 62.43 17.7643C62.8283 17.2235 63.2272 16.6788 63.6255 16.1424C64.2001 14.0868 64.7752 12.0391 65.3498 10C65.9244 7.96089 66.499 5.93769 67.0832 3.9189C66.7587 3.43559 66.4342 2.95269 66.119 2.46938C68.2508 2.37911 70.3923 2.30565 72.5333 2.24389V2.2444ZM38.1163 19.4843C37.4862 20.3278 36.8647 21.1757 36.2437 22.0356C34.2602 22.4939 32.2858 22.9854 30.3114 23.4972C29.6813 22.924 29.0603 22.351 28.4389 21.7653C28.4296 19.5127 28.4296 17.2525 28.4296 14.9961V8.22311C28.1332 7.75232 27.846 7.28542 27.5586 6.81843C29.2177 6.50747 30.886 6.20432 32.5547 5.92178C32.2583 6.48675 31.9613 7.05603 31.674 7.6171C31.674 9.6403 31.674 11.6586 31.674 13.6774C31.674 15.6924 31.674 17.7156 31.674 19.73C31.9241 19.9676 32.1747 20.2095 32.434 20.4471C32.9903 20.3157 33.5557 20.1805 34.1211 20.0496C34.3718 19.7015 34.6219 19.3495 34.8812 19.0014V13.0347V7.06854C34.5846 6.60555 34.2882 6.14297 34.0009 5.68038C35.66 5.42256 37.3282 5.17235 38.997 4.93485C38.7005 5.47951 38.4035 6.02417 38.1163 6.56492C38.1163 8.72283 38.1163 10.8768 38.1163 13.027C38.1163 15.1805 38.1163 17.3346 38.1163 19.4848V19.4843ZM87.8557 2.19515C88.3472 3.76347 88.8493 5.33559 89.339 6.9001C89.832 8.47613 90.34 10.0618 90.8402 11.6297V7.59629V3.55049C90.5529 3.11202 90.2656 2.67796 89.9875 2.2444C91.6282 2.28493 93.2782 2.34238 94.928 2.39162C94.6316 2.82959 94.3352 3.25164 94.0478 3.6813C94.0478 5.89716 94.0478 8.11202 94.0478 10.3235C94.0478 12.535 94.0478 14.7503 94.0478 16.9617C92.6388 16.8961 91.2298 16.843 89.8209 16.7938C89.2926 15.2621 88.7639 13.7305 88.2453 12.2072C87.7263 10.6837 87.1976 9.15259 86.6784 7.62481C86.6784 8.9232 86.6784 10.2173 86.6784 11.5152C86.6784 12.8136 86.6784 14.1071 86.6784 15.4055C86.9658 15.8478 87.2531 16.294 87.5501 16.7363C85.9556 16.7078 84.3704 16.6996 82.7857 16.6952C83.0633 16.2656 83.3511 15.8353 83.638 15.4094V9.41431V3.41528C83.3511 2.98552 83.0633 2.55916 82.7857 2.12939C84.4723 2.14581 86.1594 2.15792 87.8557 2.19515ZM8.56549 11.5398C8.29677 12.1501 8.03714 12.76 7.77762 13.3785C8.36171 16.1221 8.95491 18.8454 9.5481 21.5441C10.0764 18.2964 10.6049 15.0617 11.1425 11.8513C10.957 11.5442 10.7717 11.2327 10.5863 10.9174C12.6905 10.3115 14.8037 9.73398 16.9173 9.18101C16.6022 9.86089 16.2869 10.5529 15.9718 11.2452C15.9718 13.7634 15.9718 16.282 15.9718 18.7962C15.9718 21.3109 15.9718 23.829 15.9718 26.3437C16.259 26.8019 16.5558 27.2524 16.8523 27.6991C15.2024 28.3215 13.5525 28.9477 11.9118 29.6073C12.1897 28.9356 12.4773 28.2601 12.7645 27.5842V22.5595V17.5267C12.3938 19.6113 12.022 21.7034 11.6615 23.7962C11.299 25.9008 10.9383 28.0264 10.5769 30.1519C9.88159 30.4504 9.18652 30.7454 8.49133 31.0486C8.12983 29.1935 7.76741 27.3262 7.41612 25.4548C7.06312 23.5755 6.71144 21.6793 6.35934 19.7749C6.35934 21.5152 6.35934 23.2558 6.35934 24.9922C6.35934 26.728 6.35934 28.4687 6.35934 30.2051C6.64669 30.6759 6.94332 31.1427 7.23987 31.6015C5.58998 32.3586 3.94 33.149 2.29922 33.9351C2.58657 33.1901 2.88332 32.4363 3.17987 31.6874V23.5093C3.17987 20.7822 3.18908 18.0512 3.19839 15.3278C2.87402 14.7749 2.54954 14.2138 2.23438 13.6446C4.33854 12.9199 6.45192 12.2154 8.5653 11.5398H8.56549Z" fill="white"/>
</svg>
