<?xml version="1.0" encoding="UTF-8"?>
<svg width="1002px" height="771px" viewBox="2070 437 1002 771" xmlns="http://www.w3.org/2000/svg" xmlns:xlink="http://www.w3.org/1999/xlink" version="1.1">
 <!-- Generated by Pixelmator Pro 1.6.2 -->
 <g id="vecteezy_mountains-logo-design-vector-template_6470734">
  <g id="g10">
   <path id="path20" d="M2769.133 1049.313 C2711.374 1085.941 2642.881 1107.159 2569.418 1107.159 2543.438 1107.159 2518.081 1104.506 2493.596 1099.454 2497.229 1096.497 2501.281 1093.467 2505.792 1090.447 2534.301 1071.361 2596.797 1069.089 2597.892 1054.094 2598.987 1039.095 2550.747 1040.914 2527.72 1038.183 2504.693 1035.457 2511.818 1026.368 2540.876 1014.553 2556.686 1008.122 2535.999 1004.296 2513.681 1000.123 2460.433 990.17 2502.444 971.475 2540.486 958.087 2576.621 945.369 2608.434 937.404 2579.13 947.584 2559.533 954.386 2546.975 962.144 2542.681 968.812 2529.032 990.015 2593.343 983.073 2599.74 982.914 2632.532 982.089 2669.271 984.597 2646.871 1002.839 2641.491 1007.215 2639.914 1011.812 2661.909 1014.389 2701.855 1019.064 2758.312 1026.411 2769.133 1049.313 Z" fill="#2eb6fc" fill-opacity="1" stroke="none"/>
   <path id="path22" d="M2724.27 1073.629 C2682.842 1092.531 2637.362 1104.091 2589.478 1106.624 2599.547 1102.47 2612.703 1097.254 2621.788 1094.461 2638.408 1089.347 2622.642 1087.215 2598.351 1085.087 2574.059 1082.955 2618.281 1070.758 2644.048 1060.217 2669.816 1049.675 2638.973 1050.457 2622.188 1049.873 2605.399 1049.284 2609.693 1044.793 2622.579 1036.987 2635.461 1029.181 2590.366 1034.84 2579.824 1034.058 2569.288 1033.277 2578.068 1026.445 2586.463 1021.37 2594.858 1016.294 2577.875 1017.269 2566.359 1016.883 2554.838 1016.492 2564.598 1010.635 2577.682 1005.951 2590.757 1001.266 2578.459 997.358 2555.62 1000.485 2532.781 1003.606 2529.852 998.728 2535.902 996.774 2541.957 994.821 2538.054 993.065 2525.559 992.283 2513.068 991.501 2506.231 989.75 2510.525 986.817 2514.824 983.893 2524.584 980.574 2515.799 979.792 2507.013 979.011 2503.308 975.108 2513.454 972.179 2523.604 969.251 2526.34 968.276 2520.676 967.688 2516.648 967.273 2525.327 963.678 2530.658 961.647 2531.912 961.179 2533.172 960.711 2534.431 960.253 2534.629 960.214 2555.61 956.065 2552.855 957.445 2550.086 958.83 2532.4 965.01 2534.957 965.01 2537.514 965.01 2539.217 967.142 2536.129 968.845 2533.036 970.553 2521.742 974.813 2527.923 975.238 2534.103 975.667 2537.301 978.007 2534.744 980.352 2532.187 982.697 2523.875 987.28 2535.169 986.961 2546.463 986.638 2552.962 987.28 2550.511 988.983 2548.06 990.691 2538.7 995.004 2569.37 993.031 2600.039 991.057 2617.103 989.625 2609.432 993.46 2601.761 997.296 2602.186 998.999 2616.25 997.296 2630.313 995.588 2635.427 999.853 2621.364 1007.523 2607.3 1015.194 2591.534 1022.865 2626.477 1020.733 2661.426 1018.601 2665.262 1026.701 2658.015 1028.829 2650.774 1030.961 2639.262 1035.226 2680.179 1039.061 2721.091 1042.897 2721.091 1047.157 2714.274 1053.974 2707.452 1060.796 2678.047 1067.613 2702.338 1070.17 2710.675 1071.048 2718.104 1072.326 2724.27 1073.629 Z" fill="#28a0de" fill-opacity="1" stroke="none"/>
   <path id="path30" d="M2445.091 651.118 C2440.758 649.352 2436.802 647.683 2435.702 647.022 2432.952 645.377 2400.382 620.02 2400.382 620.02 2400.382 620.02 2388.21 599.602 2385.074 595.651 2381.933 591.7 2378.011 594.334 2374.474 596.968 2370.948 599.602 2349.358 616.396 2347.004 619.03 2344.649 621.665 2339.941 630.889 2339.941 630.889 L2307.759 655.258 2293.631 674.353 2144.202 813.299 2133.728 863.623 2989.724 838.391 3011.752 757.667 C3011.752 757.667 2864.268 646.163 2857.807 640.702 2851.352 635.236 2825.512 621.588 2825.512 621.588 2801.708 598.772 2791.408 588.897 2771.362 573.699 2761.665 566.347 2758.563 567.862 2752.025 571.524 2742.545 576.835 2730.277 588.598 2717.318 600.649 2714.081 603.66 2709.724 607.659 2704.731 612.078 2692.337 602.854 2679.47 597.233 2677.487 594.57 2675.026 591.27 2656.819 565.667 2652.39 563.192 2647.961 560.712 2619.419 549.152 2616.959 545.848 2614.498 542.548 2585.464 515.313 2581.035 514.073 2576.606 512.833 2523.952 561.952 2517.063 568.146 2510.173 574.336 2504.268 599.115 2500.823 601.59 2499.545 602.511 2475.21 624.193 2445.091 651.118" fill="#2a282a" fill-opacity="1" stroke="none"/>
   <path id="path32" d="M2375.7 623.368 C2372.55 625.833 2369.056 628.501 2366.176 631.106 2364.623 633.398 2363.127 636.399 2361.921 638.753 L2359.875 642.801 2309.47 681.281 2294.972 700.883 C2298.853 698.833 2299.3 698.765 2304.086 695.87 2308.874 692.976 2324.637 682.545 2324.637 682.545 2324.637 682.545 2307.35 700.304 2300.642 705.379 2293.934 710.46 2261.547 733.772 2259.921 735.494 2258.295 737.212 2257.483 747.449 2257.483 747.449 L2258.676 749.852 C2258.676 749.852 2291.353 726.805 2293.485 724.803 2295.616 722.801 2301.028 718.02 2304.87 716.963 2308.711 715.902 2311.574 714.898 2313.717 711.719 2315.861 708.544 2320.619 705.423 2324.389 703.541 2328.158 701.66 2335.565 695.079 2335.565 695.079 2335.565 695.079 2326.799 705.997 2307.144 722.632 2287.49 739.267 2272.303 760.205 2272.611 761.136 2272.919 762.072 2274.836 763.635 2288.835 752.838 2302.833 742.046 2316.301 732.681 2319.092 730.858 2325.572 726.631 2333.215 719.592 2339.231 714.58 2334.88 722.034 2310.8 754.343 2303.553 760.075 2288.513 771.967 2287.811 806.033 2295.362 806.911 L2482.852 810.105 2482.852 808.749 2462.034 740.429 C2456.809 736.242 2409.515 729.767 2410.103 727.963 2410.692 726.154 2425.479 711.946 2425.479 711.946 L2384.519 728.296 C2384.519 728.296 2395.721 714.073 2403.87 703.913 2402.785 702.19 2400.657 700.357 2399.914 699.32 2398.853 697.834 2400.445 693.69 2399.21 692.358 2397.97 691.027 2396.561 692.802 2396.561 692.802 2396.561 692.802 2384.032 705.683 2368.125 714.266 2368.125 714.266 2386.27 690.853 2393.821 680.572 2391.09 679.226 2388.379 677.827 2385.662 676.461 L2366.693 686.188 2386.208 667.43 C2386.208 667.43 2380.679 663.86 2379.772 662.109 2378.865 660.362 2379.593 655.721 2379.593 655.721 L2364.912 658.003 C2364.912 658.003 2372.887 649.869 2373.519 648.957 2373.948 648.344 2374.537 644.948 2374.88 642.786 L2374.836 630.841 C2374.836 630.841 2375.222 628.168 2375.705 623.368 Z M2759.619 587.623 C2756.31 589.943 2753.034 592.79 2750.313 595.154 2744.084 600.577 2738.116 606.246 2732.105 611.842 2727.782 615.866 2723.233 620.048 2718.514 624.255 2720.806 626.055 2722.943 627.454 2724.27 627.686 2728.414 628.409 2735.666 626.817 2738.604 627.541 2741.537 628.265 2747.061 631.598 2747.751 632.611 2748.441 633.625 2755.176 638.7 2757.25 640.437 2759.32 642.174 2787.982 661.443 2792.127 666.658 2796.271 671.873 2811.811 691.142 2811.811 691.142 2811.811 691.142 2929.239 775.764 2938.705 783.778 L2968.626 757.667 2914.409 715.651 2914.409 715.656 2914.399 715.641 2914.254 715.535 C2912.054 713.982 2895.902 707.681 2894.85 706.648 2893.774 705.587 2894.208 701.032 2892.708 699.87 2891.174 698.678 2873.801 708.38 2871.519 710.098 L2878.929 688.691 C2875.957 687.702 2872.985 686.66 2870.028 685.652 L2851.714 694.433 2865.565 678.169 C2865.565 678.169 2852.573 674.16 2851.314 672.549 2850.059 670.937 2849.809 666.267 2849.809 666.267 L2835.798 670.354 C2835.798 670.354 2841.978 661.327 2842.413 660.348 2842.456 660.261 2842.485 660.121 2842.514 659.938 L2841.182 658.91 C2840.237 658.172 2796.343 652.652 2796.343 652.652 2796.343 652.652 2794.423 650.8 2794.283 648.301 2794.143 645.806 2788.764 642.883 2787.124 641.344 2785.488 639.805 2786.25 634.643 2784.446 633.311 2782.642 631.979 2781.58 628.559 2781.58 628.559 2781.58 628.559 2774.208 631.782 2767.995 635.424 2773.128 624.641 2777.663 614.891 2777.538 614.336 2777.248 613.072 2776.399 608.354 2776.399 608.354 L2776.298 605.208 2744.688 624.434 C2744.688 624.434 2759.894 609.912 2760.42 608.301 2760.941 606.689 2761.12 602.729 2761.12 602.729 L2766.446 597.61 2763.889 596.384 2757.747 600.596 C2757.747 600.596 2762.678 592.949 2762.586 592.399 2762.533 592.09 2760.97 589.669 2759.619 587.618 Z M2577.967 547.802 C2575.931 549.934 2574.025 551.941 2572.318 553.687 2562.577 563.655 2552.349 575.335 2542 584.887 2540.785 587.049 2539.685 590.055 2538.879 592.124 2534.986 602.072 2532.12 613.497 2522.78 620.965 2512.957 629.181 2503.351 638.145 2493.837 646.631 2485.491 654.071 2477.154 661.52 2468.823 668.964 2477.164 664.781 2496.24 655.132 2502.16 651.552 2509.811 646.926 2522.712 638.227 2522.712 638.227 2522.712 638.227 2505.426 655.986 2498.715 661.066 2492.009 666.142 2487.271 669.924 2485.646 671.646 2484.015 673.364 2483.209 683.602 2483.209 683.602 L2484.401 686.004 C2484.401 686.004 2489.428 682.487 2491.56 680.485 2493.693 678.483 2499.101 673.707 2502.946 672.645 2506.786 671.584 2509.647 670.58 2511.789 667.406 2513.931 664.226 2518.693 661.105 2522.461 659.228 2526.234 657.342 2533.64 650.761 2533.64 650.761 2533.64 650.761 2524.874 661.679 2505.219 678.314 2485.559 694.949 2481.728 703.879 2482.032 704.815 2482.341 705.746 2484.256 707.309 2498.257 696.517 2512.257 685.719 2519.292 679.226 2522.085 677.407 2524.874 675.583 2559.084 654.056 2559.084 654.056 2559.084 654.056 2535.347 675.897 2520.946 687.288 2513.203 693.415 2505.971 702.354 2500.601 709.673 2508.306 707.386 2515.456 705.254 2518.288 704.333 2525.501 701.983 2532.072 700.121 2537.919 696.078 2543.771 692.04 2563.469 679.747 2563.469 679.747 2563.469 679.747 2537.258 704.945 2535.29 706.238 2533.321 707.536 2528.246 707.879 2526.331 709.331 2524.415 710.783 2515.692 721.85 2514.018 723.413 2512.339 724.981 2510.511 730.93 2510.511 730.93 2510.511 730.93 2525.395 721.604 2528.897 720.123 2532.4 718.637 2540.384 715.607 2540.384 715.607 2540.384 715.607 2544.36 711.328 2545.32 710.604 2546.275 709.881 2555.167 705.968 2556.156 704.733 2557.145 703.498 2569.582 690.39 2575.082 687.099 2580.582 683.809 2611.922 661.751 2611.922 661.751 2611.922 661.751 2600.107 672.814 2597.386 675.636 2594.665 678.459 2588.176 681.426 2585.894 683.997 2583.617 686.569 2578.088 691.938 2574.653 695.224 2547.563 721.083 2511.476 788.867 2527.966 808.749 L2830.723 808.749 2830.723 779.054 C2809.288 761.623 2786.762 741.833 2764.651 728.412 2749.927 719.472 2682.118 714.662 2682.649 713.272 2684.864 707.464 2695.661 696.99 2705.102 688.687 2694.788 692.276 2676.44 698.408 2675.007 697.12 2673.005 695.32 2671.625 693.236 2670.955 691.138 2670.284 689.039 2671.205 680.741 2671.205 680.741 L2622.382 708.501 C2622.382 708.501 2626.294 701.177 2627.283 700.357 2628.272 699.532 2637.733 695.61 2638.843 694.611 2639.952 693.612 2664.171 669.885 2664.171 669.885 L2663.105 664.878 2648.255 669.268 2660.23 659.233 2671.731 657.178 2658.768 652.696 C2658.768 652.696 2648.135 654.544 2644.116 656.527 2640.092 658.509 2615.564 669.89 2615.564 669.89 2615.564 669.89 2636.252 654.317 2638.264 652.831 2640.271 651.34 2651.029 640.331 2651.029 640.331 L2638.737 640.533 C2638.737 640.533 2638.143 635.771 2637.434 634.479 2636.725 633.19 2627.978 632.004 2625.141 629.519 2623.631 628.202 2620.447 625.785 2617.798 623.817 2611.758 626.986 2599.865 634.035 2596.942 636.225 2593.275 638.965 2589.946 640.403 2588.61 642.053 2587.269 643.708 2576.925 655.803 2576.925 655.803 L2586.757 637.668 C2586.757 637.668 2593.685 631.343 2597.781 627.628 2601.873 623.913 2603.976 613.318 2603.74 612.276 2603.503 611.229 2594.226 609.111 2594.226 609.111 2594.226 609.111 2592.301 607.259 2592.166 604.76 2592.026 602.265 2586.646 599.342 2585.006 597.803 2583.371 596.264 2584.128 591.101 2582.328 589.77 2580.524 588.438 2579.337 590.788 2579.337 590.788 2579.337 590.788 2568.067 608.253 2551.688 621.303 2551.688 621.303 2575.704 572.059 2575.415 570.8 2575.13 569.536 2574.281 564.813 2574.281 564.813 L2574.059 557.933 Z" fill="#88c24e" fill-opacity="1" stroke="none"/>
   <path id="path34" d="M2577.967 547.802 C2575.931 549.934 2574.025 551.941 2572.318 553.687 2562.582 563.655 2552.349 575.335 2542 584.887 2540.785 587.049 2539.685 590.055 2538.879 592.124 2534.986 602.072 2532.12 613.497 2522.78 620.965 2512.957 629.181 2503.351 638.145 2493.837 646.631 2485.491 654.071 2477.154 661.52 2468.823 668.969 2477.164 664.781 2496.24 655.132 2502.16 651.552 2509.811 646.926 2522.712 638.227 2522.712 638.227 2522.712 638.227 2505.421 655.986 2498.715 661.066 2492.009 666.142 2487.271 669.924 2485.646 671.642 2484.015 673.364 2483.209 683.602 2483.209 683.602 L2484.401 686.004 C2484.401 686.004 2489.428 682.487 2491.56 680.485 2493.693 678.483 2499.101 673.706 2502.946 672.645 2506.786 671.584 2509.647 670.58 2511.789 667.406 2513.931 664.226 2518.693 661.105 2522.461 659.228 2526.234 657.342 2533.64 650.761 2533.64 650.761 2533.64 650.761 2524.874 661.679 2505.219 678.314 2485.559 694.949 2481.723 703.879 2482.032 704.815 2482.341 705.746 2484.256 707.309 2498.257 696.517 2512.257 685.719 2519.292 679.226 2522.085 677.407 2524.874 675.583 2559.084 654.056 2559.084 654.056 2559.084 654.056 2535.347 675.892 2520.946 687.288 2513.203 693.41 2505.971 702.354 2500.601 709.678 2508.306 707.386 2515.456 705.254 2518.288 704.332 2525.501 701.983 2532.072 700.121 2537.919 696.078 2543.771 692.04 2563.469 679.752 2563.469 679.752 2563.469 679.752 2537.258 704.945 2535.29 706.238 2533.321 707.536 2528.246 707.878 2526.331 709.331 2524.415 710.778 2515.692 721.85 2514.018 723.413 2512.339 724.981 2510.511 730.935 2510.511 730.935 2510.511 730.935 2525.395 721.604 2528.897 720.123 2532.4 718.637 2540.384 715.607 2540.384 715.607 2540.384 715.607 2544.36 711.328 2545.32 710.604 2546.275 709.881 2555.162 705.968 2556.156 704.733 2557.145 703.498 2569.582 690.385 2575.082 687.094 2580.582 683.809 2611.922 661.751 2611.922 661.751 2611.922 661.751 2600.107 672.814 2597.391 675.636 2594.669 678.454 2588.176 681.426 2585.894 684.002 2583.616 686.569 2578.088 691.938 2574.653 695.219 2547.563 721.083 2511.476 788.867 2527.966 808.749 L2778.382 808.749 C2780.934 793.803 2782.217 774.066 2773.427 766.158 2758.461 752.688 2737.639 743.194 2737.639 743.194 2737.639 743.194 2717.579 737.12 2705.107 737.12 2692.636 737.12 2647.204 732.315 2647.204 732.315 L2653.596 710.59 2605.882 737.12 C2605.882 737.12 2604.256 724.369 2605.882 715.641 2607.508 706.918 2628.113 680.741 2628.113 680.741 L2608.053 694.056 2582.024 718.396 C2582.024 718.396 2583.65 713.803 2588.533 704.622 2593.41 695.436 2625.947 647.678 2625.947 647.678 L2587.988 662.374 2559.253 674.314 2572.265 634.358 2550.573 648.137 2563.045 624.714 2532.679 641.706 C2532.679 641.706 2556.537 585.22 2559.253 580.169 2561.964 575.118 2577.967 547.806 2577.967 547.806 Z M2759.619 587.623 L2744.171 612.71 2750.255 611.167 2739.892 623.913 2748.962 628.708 2762.615 624.038 2760.386 638.116 2766.465 642.063 2774.373 640.003 C2774.373 640.003 2779.236 645.84 2779.641 647.384 2780.046 648.928 2784.099 654.597 2784.099 654.597 L2792.209 661.288 2819.974 666.783 2814.097 681.199 2835.152 680.828 C2835.152 680.828 2833.174 691.972 2833.174 694.018 2833.174 696.058 2839.315 700.704 2839.315 700.704 L2846.991 703.117 2846.774 705.717 2862.781 700.333 2859.93 717.605 2862.564 720.76 2883.836 714.073 2882.08 729.676 2954.645 769.864 2938.705 783.778 C2929.239 775.764 2811.811 691.142 2811.811 691.142 2811.811 691.142 2796.271 671.873 2792.127 666.658 2787.982 661.443 2759.32 642.174 2757.246 640.437 2755.176 638.7 2748.441 633.625 2747.751 632.611 2747.061 631.598 2741.532 628.265 2738.599 627.541 2735.666 626.817 2728.414 628.409 2724.265 627.686 2722.938 627.454 2720.801 626.05 2718.51 624.255 2723.228 620.048 2727.778 615.866 2732.105 611.842 2738.116 606.246 2744.084 600.577 2750.313 595.154 2753.029 592.785 2756.305 589.939 2759.615 587.623 Z M2375.7 623.368 C2375.7 623.368 2368.265 634.975 2368.265 636.51 2368.265 638.044 2364.034 647.78 2362.519 649.83 2361.009 651.876 2340.746 677.233 2340.746 677.233 L2358.587 671.854 2339.535 706.431 2354.356 701.824 2348.002 737.12 2373.104 724.427 2358.023 770.375 2387.317 746.894 2414.807 741.076 2414.122 755.921 2418.932 773.964 2442.297 752.717 C2442.297 752.717 2447.455 761.155 2460.51 777.163 2465.093 782.779 2471.896 789.331 2478.8 795.463 L2482.847 808.749 2482.847 810.105 2397.7 808.653 2369.693 808.175 2349.286 807.828 2295.359 806.911 C2287.809 806.033 2288.511 771.967 2303.55 760.07 2310.797 754.338 2334.875 722.034 2339.231 714.58 2333.215 719.592 2325.569 726.631 2319.088 730.858 2316.299 732.676 2302.83 742.046 2288.832 752.838 2274.833 763.635 2272.916 762.072 2272.606 761.136 2272.3 760.2 2287.486 739.262 2307.141 722.627 2326.795 705.997 2335.56 695.079 2335.56 695.079 2335.56 695.079 2328.156 701.66 2324.385 703.541 2320.615 705.423 2315.859 708.54 2313.715 711.719 2311.57 714.898 2308.708 715.902 2304.866 716.963 2301.026 718.024 2295.613 722.801 2293.482 724.803 2291.349 726.805 2258.673 749.852 2258.673 749.852 L2257.48 747.449 C2257.48 747.449 2258.29 737.211 2259.918 735.489 2261.544 733.772 2293.931 710.46 2300.639 705.379 2307.348 700.304 2324.635 682.545 2324.635 682.545 2324.635 682.545 2308.871 692.976 2304.083 695.87 2299.296 698.765 2298.85 698.833 2294.969 700.883 L2309.466 681.281 2359.871 642.801 2361.921 638.748 C2363.122 636.394 2364.618 633.393 2366.171 631.101 2369.052 628.496 2372.545 625.833 2375.7 623.368 Z" fill="#629137" fill-opacity="1" stroke="none"/>
   <path id="path36" d="M2229.918 833.407 C2204.573 835.617 2189.089 824.897 2181.21 816.864 2188.69 821.418 2198.986 823.416 2210.155 818.075 2202.42 820.516 2189.87 816.777 2181.623 810.496 2189.885 814.809 2201.814 817.578 2213.229 812.353 2190.935 812.951 2179.379 802.825 2173.784 794.937 2181.232 801.821 2193.79 806.54 2207.702 799.891 2202.292 801.599 2194.528 800.282 2187.527 797.19 2193.672 798.087 2201.607 797.503 2211.701 793.904 2183.499 794.474 2171.921 776.14 2171.921 776.14 2171.921 776.14 2185.529 783.937 2201.006 775.836 2181.454 777.076 2171.965 765.604 2168.031 758.608 2174.48 765.025 2185.459 768.392 2194.979 764.388 2190.209 765.112 2185.066 763.794 2180.349 761.136 2185.453 762.357 2191.503 762.352 2197.853 759.279 2187.229 759.544 2173.76 754.445 2166.821 742.533 2171.623 746.754 2177.488 749.543 2185.064 749.007 2180.809 748.337 2175.613 745.085 2170.776 740.661 2174.943 743.001 2180.84 745.104 2188.183 744.612 2173.808 742.436 2168.752 732.069 2168.752 732.069 2168.752 732.069 2171.844 737.342 2185.492 737.998 2169.1 732.599 2158.965 714.276 2158.965 714.276 2158.965 714.276 2167.486 726.284 2181.67 725.816 2170.983 721.045 2164.595 712.592 2164.595 712.592 2164.595 712.592 2169.736 716.838 2177.79 718.275 2170.186 714.807 2164.989 708.076 2161.683 702.176 2165.317 705.934 2169.865 707.951 2175.006 707.121 2170.344 705.674 2165.704 701.756 2162.022 696.845 2165.415 699.768 2169.226 701.64 2172.952 702.822 2164.213 696.097 2157.745 686.236 2154.458 673.379 2152.834 667.029 2152.14 655.822 2150.736 650.366 2149.332 655.822 2148.636 667.029 2147.014 673.379 2143.728 686.236 2137.26 696.097 2128.52 702.822 2132.246 701.64 2136.054 699.768 2139.449 696.845 2135.768 701.756 2131.128 705.674 2126.465 707.121 2131.607 707.951 2136.156 705.934 2139.79 702.176 2136.485 708.076 2131.287 714.807 2123.683 718.275 2131.735 716.838 2136.876 712.592 2136.876 712.592 2136.876 712.592 2130.489 721.045 2119.801 725.816 2133.987 726.284 2142.506 714.276 2142.506 714.276 2142.506 714.276 2132.373 732.599 2115.979 737.998 2129.627 737.342 2132.719 732.069 2132.719 732.069 2132.719 732.069 2127.663 742.436 2113.29 744.612 2120.632 745.104 2126.53 743.001 2130.695 740.661 2125.859 745.085 2120.663 748.337 2116.407 749.007 2123.985 749.543 2129.85 746.754 2134.65 742.533 2127.711 754.445 2114.242 759.544 2103.62 759.279 2109.971 762.352 2116.019 762.352 2121.124 761.136 2116.406 763.794 2111.263 765.112 2106.494 764.388 2116.012 768.392 2126.991 765.025 2133.441 758.608 2129.506 765.604 2120.017 777.076 2100.467 775.836 2115.943 783.937 2129.551 776.14 2129.551 776.14 2129.551 776.14 2117.974 794.474 2089.771 793.904 2099.864 797.503 2107.799 798.087 2113.944 797.19 2106.942 800.282 2099.18 801.599 2093.771 799.891 2107.681 806.54 2120.239 801.821 2127.689 794.937 2122.093 802.825 2110.538 812.951 2088.242 812.353 2099.658 817.578 2111.584 814.809 2119.85 810.496 2111.603 816.777 2099.051 820.516 2091.316 818.075 2102.485 823.416 2112.782 821.418 2120.262 816.864 2112.383 824.892 2095.181 839.554 2069.836 837.344 2079.616 840.769 2095.722 838.376 2108.78 834.917 2099.32 840.678 2087.134 843.071 2076.554 841.807 2094.548 849.429 2112.241 842.82 2122.216 834.102 2113.848 846.12 2097.812 852.107 2085.44 850.597 2094.882 853.699 2108.269 854.075 2117.57 849.801 2117.57 849.801 2113.826 853.8 2106.37 858.085 L2150.734 858.085 2195.098 858.085 C2187.643 853.8 2183.898 849.801 2183.898 849.801 2193.2 854.075 2206.586 853.699 2216.028 850.597 2203.658 852.112 2187.622 846.12 2179.252 834.102 2189.228 842.82 2206.919 849.429 2224.915 841.807 2214.333 843.071 2202.147 840.678 2192.688 834.917 2205.746 838.376 2220.134 836.833 2229.914 833.407 Z" fill="#2a282a" fill-opacity="1" stroke="none"/>
   <path id="path38" d="M2376.289 800.248 C2338.841 803.51 2315.959 787.671 2304.317 775.803 2315.372 782.533 2330.586 785.481 2347.086 777.593 2335.656 781.201 2317.114 775.672 2304.928 766.39 2317.138 772.763 2334.764 776.854 2351.63 769.135 2318.687 770.018 2301.611 755.052 2293.344 743.396 2304.351 753.571 2322.906 760.548 2343.463 750.725 2335.468 753.243 2323.998 751.299 2313.654 746.73 2322.732 748.057 2334.46 747.193 2349.373 741.872 2307.7 742.716 2290.592 715.622 2290.592 715.622 2290.592 715.622 2310.702 727.143 2333.567 715.173 2304.679 717.006 2290.658 700.053 2284.844 689.714 2294.374 699.199 2310.598 704.173 2324.662 698.258 2317.614 699.325 2310.016 697.38 2303.045 693.458 2310.587 695.253 2319.525 695.253 2328.912 690.713 2313.213 691.099 2293.311 683.563 2283.058 665.968 2290.152 672.206 2298.818 676.326 2310.015 675.53 2303.727 674.541 2296.049 669.736 2288.901 663.199 2295.059 666.658 2303.772 669.765 2314.623 669.036 2293.383 665.823 2285.913 650.501 2285.913 650.501 2285.913 650.501 2290.48 658.292 2310.647 659.262 2286.425 651.292 2271.451 624.207 2271.451 624.207 2271.451 624.207 2284.039 641.956 2305 641.267 2289.209 634.208 2279.771 621.723 2279.771 621.723 2279.771 621.723 2287.366 627.994 2299.267 630.122 2288.031 624.994 2280.351 615.045 2275.468 606.332 2280.838 611.885 2287.559 614.867 2295.156 613.642 2288.265 611.504 2281.41 605.715 2275.969 598.459 2280.984 602.772 2286.613 605.541 2292.119 607.283 2279.206 597.349 2269.649 582.779 2264.792 563.78 2262.392 554.397 2261.366 537.839 2259.292 529.772 2257.217 537.839 2256.19 554.397 2253.791 563.78 2248.935 582.779 2239.377 597.349 2226.464 607.283 2231.97 605.536 2237.598 602.772 2242.615 598.459 2237.174 605.715 2230.317 611.504 2223.427 613.642 2231.025 614.867 2237.746 611.885 2243.116 606.332 2238.232 615.045 2230.553 624.994 2219.316 630.122 2231.218 627.994 2238.814 621.723 2238.814 621.723 2238.814 621.723 2229.375 634.208 2213.583 641.267 2234.544 641.956 2247.132 624.207 2247.132 624.207 2247.132 624.207 2232.159 651.292 2207.937 659.262 2228.104 658.292 2232.671 650.501 2232.671 650.501 2232.671 650.501 2225.2 665.823 2203.961 669.036 2214.812 669.765 2223.526 666.658 2229.682 663.199 2222.535 669.736 2214.858 674.541 2208.569 675.53 2219.767 676.326 2228.432 672.206 2235.526 665.968 2225.273 683.563 2205.371 691.099 2189.674 690.713 2199.058 695.253 2207.996 695.253 2215.539 693.458 2208.568 697.38 2200.969 699.325 2193.921 698.258 2207.986 704.173 2224.209 699.199 2233.74 689.714 2227.925 700.053 2213.904 717.006 2185.014 715.173 2207.882 727.143 2227.991 715.622 2227.991 715.622 2227.991 715.622 2210.883 742.716 2169.21 741.872 2184.125 747.193 2195.851 748.057 2204.93 746.73 2194.585 751.299 2183.114 753.248 2175.121 750.725 2195.677 760.548 2214.231 753.571 2225.24 743.396 2216.972 755.052 2199.896 770.018 2166.953 769.135 2183.821 776.854 2201.445 772.763 2213.656 766.39 2201.47 775.672 2182.924 781.201 2171.494 777.593 2188 785.481 2203.213 782.533 2214.266 775.803 2202.623 787.671 2177.205 809.328 2139.755 806.067 2154.207 811.128 2178.005 807.591 2197.3 802.482 2183.322 810.988 2165.315 814.524 2149.68 812.662 2176.271 823.922 2202.411 814.157 2217.152 801.276 2204.786 819.03 2181.091 827.883 2162.811 825.645 2176.763 830.228 2196.544 830.792 2210.288 824.472 2210.288 824.472 2204.756 830.382 2193.739 836.712 L2259.293 836.712 2324.847 836.712 C2313.831 830.382 2308.297 824.472 2308.297 824.472 2322.041 830.792 2341.822 830.228 2355.775 825.645 2337.495 827.883 2313.801 819.03 2301.434 801.276 2316.174 814.153 2342.314 823.922 2368.907 812.662 2353.271 814.524 2335.266 810.988 2321.286 802.482 2340.577 807.591 2361.844 805.309 2376.293 800.248 Z" fill="#2a282a" fill-opacity="1" stroke="none"/>
   <path id="path40" d="M2414.127 771.822 C2389.3 773.989 2374.127 763.486 2366.408 755.617 2373.736 760.08 2383.824 762.034 2394.766 756.804 2387.187 759.197 2374.894 755.53 2366.813 749.379 2374.909 753.605 2386.594 756.317 2397.777 751.198 2375.936 751.781 2364.613 741.862 2359.133 734.133 2366.432 740.878 2378.734 745.505 2392.364 738.992 2387.062 740.666 2379.458 739.373 2372.598 736.343 2378.619 737.221 2386.391 736.652 2396.281 733.125 2368.651 733.68 2357.309 715.723 2357.309 715.723 2357.309 715.723 2370.644 723.36 2385.802 715.424 2366.649 716.64 2357.352 705.399 2353.498 698.543 2359.818 704.829 2370.572 708.129 2379.897 704.207 2375.227 704.916 2370.19 703.623 2365.568 701.023 2370.567 702.215 2376.491 702.215 2382.715 699.204 2372.308 699.46 2359.113 694.466 2352.315 682.801 2357.019 686.935 2362.765 689.666 2370.186 689.14 2366.017 688.479 2360.927 685.295 2356.189 680.963 2360.271 683.254 2366.051 685.314 2373.244 684.832 2359.162 682.699 2354.207 672.544 2354.207 672.544 2354.207 672.544 2357.237 677.711 2370.605 678.348 2354.544 673.065 2344.62 655.113 2344.62 655.113 2344.62 655.113 2352.967 666.88 2366.861 666.417 2356.392 661.742 2350.135 653.463 2350.135 653.463 2350.135 653.463 2355.172 657.622 2363.06 659.03 2355.611 655.634 2350.521 649.034 2347.279 643.259 2350.839 646.94 2355.297 648.918 2360.334 648.103 2355.765 646.689 2351.22 642.849 2347.612 638.039 2350.94 640.9 2354.67 642.733 2358.322 643.891 2349.759 637.306 2343.424 627.642 2340.201 615.045 2338.614 608.822 2337.934 597.846 2336.559 592.501 2335.184 597.846 2334.499 608.827 2332.911 615.045 2329.688 627.642 2323.354 637.306 2314.792 643.891 2318.442 642.733 2322.175 640.9 2325.5 638.039 2321.893 642.849 2317.347 646.689 2312.779 648.103 2317.816 648.918 2322.272 646.94 2325.832 643.259 2322.595 649.034 2317.503 655.629 2310.052 659.03 2317.943 657.622 2322.979 653.463 2322.979 653.463 2322.979 653.463 2316.721 661.742 2306.251 666.417 2320.148 666.88 2328.492 655.113 2328.492 655.113 2328.492 655.113 2318.566 673.065 2302.506 678.348 2315.876 677.711 2318.906 672.544 2318.906 672.544 2318.906 672.544 2313.952 682.699 2299.871 684.832 2307.064 685.314 2312.842 683.254 2316.924 680.963 2312.186 685.295 2307.095 688.479 2302.926 689.14 2310.351 689.666 2316.095 686.935 2320.799 682.801 2314 694.466 2300.806 699.46 2290.398 699.204 2296.62 702.215 2302.547 702.215 2307.548 701.023 2302.926 703.623 2297.887 704.916 2293.214 704.207 2302.54 708.129 2313.296 704.829 2319.615 698.543 2315.761 705.399 2306.464 716.635 2287.31 715.424 2302.473 723.36 2315.804 715.723 2315.804 715.723 2315.804 715.723 2304.461 733.68 2276.832 733.125 2286.72 736.652 2294.494 737.221 2300.514 736.343 2293.654 739.373 2286.05 740.666 2280.75 738.992 2294.379 745.505 2306.681 740.878 2313.979 734.133 2308.497 741.862 2297.176 751.781 2275.335 751.198 2286.519 756.317 2298.203 753.605 2306.299 749.379 2298.22 755.53 2285.924 759.197 2278.345 756.804 2289.289 762.034 2299.375 760.08 2306.705 755.617 2298.986 763.486 2282.132 777.848 2257.301 775.682 2266.884 779.04 2282.663 776.695 2295.454 773.308 2286.188 778.948 2274.248 781.288 2263.882 780.058 2281.511 787.521 2298.844 781.047 2308.616 772.508 2300.418 784.279 2284.708 790.146 2272.589 788.665 2281.838 791.704 2294.953 792.076 2304.066 787.888 2304.066 787.888 2300.399 791.806 2293.094 796.003 L2336.559 796.003 2380.018 796.003 C2372.713 791.806 2369.047 787.888 2369.047 787.888 2378.16 792.076 2391.273 791.704 2400.527 788.665 2388.403 790.146 2372.694 784.279 2364.497 772.508 2374.272 781.047 2391.601 787.521 2409.23 780.058 2398.867 781.293 2386.927 778.948 2377.659 773.308 2390.453 776.695 2404.55 775.18 2414.132 771.822 Z" fill="#2a282a" fill-opacity="1" stroke="none"/>
   <path id="path42" d="M3069 741.061 C3059.858 754.565 3050.768 768.098 3041.534 781.539 3041.534 831.203 3041.534 880.861 3041.534 930.524 2811.748 919.829 2599.533 939.286 2376.689 997.059 2371.276 992.138 2365.858 987.227 2360.479 982.272 2355.167 990.179 2349.937 998.135 2344.707 1006.1 2237.267 1039.375 2171.14 1068.722 2069.839 1117.271 L2089.589 1050.394 2089.754 897.052 2070.198 862.036 C2201.894 813.767 2331.527 783.898 2468.75 764.952 2677.082 736.189 2855.506 734.708 3069 741.061 Z" fill="#2a282a" fill-opacity="1" stroke="none"/>
   <path id="path44" d="M2890.32 891.296 C2893.282 895.798 2896.341 900.338 2899.395 904.839 2881.983 905.003 2864.572 905.413 2847.16 905.862 2850.122 901.196 2853.181 896.531 2856.24 891.866 L2856.24 832.582 2856.24 773.255 C2853.181 768.672 2850.122 764.171 2847.16 759.631 2864.572 759.505 2881.983 759.341 2899.395 759.423 2896.341 763.963 2893.282 768.508 2890.32 773.13 2890.32 792.814 2890.32 812.532 2890.32 832.216 2890.32 851.895 2890.32 871.617 2890.32 891.296 Z M2317.026 849.318 C2314.434 846.819 2311.933 844.282 2309.433 841.749 2303.783 843.056 2298.134 844.364 2292.577 845.758 2289.983 849.521 2287.482 853.328 2284.982 857.052 2284.982 875.173 2284.982 893.303 2284.982 911.429 2284.982 929.555 2284.982 947.68 2284.982 965.806 2287.482 968.218 2289.983 970.592 2292.577 972.966 2298.134 971.166 2303.783 969.449 2309.433 967.726 2311.933 963.881 2314.434 960.036 2317.026 956.147 L2317.026 902.755 Z M2252.565 852.551 C2258.772 843.013 2265.068 833.562 2271.367 824.154 2291.094 819.609 2310.821 815.151 2330.639 810.978 2336.848 817.24 2343.052 823.541 2349.348 829.76 2349.348 851.364 2349.348 872.963 2349.348 894.567 2349.348 916.215 2349.348 937.819 2349.348 959.423 2343.052 968.667 2336.848 977.954 2330.639 987.405 2310.821 993.547 2291.094 999.925 2271.367 1006.554 2265.068 1000.87 2258.772 995.221 2252.565 989.412 L2252.565 920.958 Z M2524.488 779.961 C2529.394 796.616 2534.387 813.231 2539.303 829.798 2544.2 846.293 2549.31 862.697 2554.308 879.105 L2554.308 834.956 2554.308 790.725 C2551.437 786.349 2548.567 781.968 2545.788 777.593 2562.181 775.832 2578.575 774.153 2595.06 772.517 2592.098 777.549 2589.223 782.542 2586.352 787.574 2586.352 811.427 2586.352 835.323 2586.352 859.136 2586.352 882.989 2586.352 906.846 2586.352 930.655 2572.279 932.908 2558.201 935.238 2544.123 937.612 2538.845 921.86 2533.548 906.031 2528.376 890.192 2523.175 874.242 2517.912 858.196 2512.725 842.115 2512.725 856.517 2512.725 870.961 2512.725 885.406 2512.725 899.85 2512.725 914.29 2512.725 928.691 2515.596 933.072 2518.467 937.409 2521.429 941.703 2505.498 944.733 2489.664 947.883 2473.825 951.154 2476.604 945.712 2479.475 940.27 2482.345 934.828 L2482.345 867.319 2482.345 799.766 C2479.475 795.308 2476.604 790.845 2473.825 786.426 2490.682 784.178 2507.539 781.968 2524.488 779.961 Z M2610.619 771.166 C2645.631 768.262 2680.637 765.768 2715.649 763.679 2720.555 776.526 2725.462 789.335 2730.373 802.058 2723.98 798.825 2717.593 795.593 2711.292 792.36 2700.645 793.06 2690.084 793.793 2679.528 794.488 2679.528 812.739 2679.528 830.903 2679.528 849.111 2679.528 867.319 2679.528 885.488 2679.528 903.695 2682.582 908.153 2685.64 912.611 2688.694 917.03 2671.654 918.999 2654.614 921.044 2637.569 923.254 2640.536 918.015 2643.498 912.818 2646.552 907.661 L2646.552 852.425 C2646.552 834.054 2646.552 815.6 2646.649 797.19 2636.088 798.13 2625.527 799.115 2614.971 800.137 2608.579 804.513 2602.191 808.932 2595.895 813.352 2600.802 799.235 2605.708 785.201 2610.619 771.166 Z M2756.86 863.189 C2767.049 862.533 2777.233 861.959 2787.423 861.428 2782.053 841.011 2776.679 820.511 2771.401 799.969 2766.494 820.96 2761.675 842.072 2756.86 863.184 Z M2804.555 760.408 C2801.129 765.604 2797.795 770.8 2794.462 776.034 2800.295 795.472 2806.229 814.944 2812.057 834.261 2817.899 853.612 2823.819 872.925 2829.748 892.237 2833.545 896.859 2837.434 901.442 2841.322 906.108 2823.172 906.764 2805.109 907.661 2787.051 908.727 2789.83 904.226 2792.609 899.763 2795.48 895.262 2794.462 891.909 2793.439 888.513 2792.518 885.16 2779.086 885.975 2765.751 886.795 2752.411 887.693 2751.485 891.378 2750.559 895.06 2749.729 898.702 2752.411 902.668 2755.19 906.677 2757.969 910.691 2739.819 912.124 2721.665 913.716 2703.607 915.477 2707.587 910.073 2711.572 904.631 2715.552 899.271 2721.293 878.733 2727.039 858.273 2732.781 837.899 2738.522 817.525 2744.263 797.31 2750.1 777.139 2746.858 772.31 2743.616 767.485 2740.466 762.656 2761.766 761.754 2783.163 761.02 2804.555 760.403 Z M2460.674 932.662 C2454.378 941.09 2448.169 949.562 2441.964 958.154 2422.145 962.733 2402.418 967.644 2382.691 972.758 2376.395 967.031 2370.19 961.305 2363.981 955.453 2363.889 932.946 2363.889 910.363 2363.889 887.818 L2363.889 820.145 C2360.927 815.441 2358.057 810.776 2355.186 806.11 2371.763 803.003 2388.432 799.974 2405.105 797.151 2402.143 802.796 2399.176 808.484 2396.305 814.09 2396.305 834.305 2396.305 854.471 2396.305 874.642 2396.305 894.775 2396.305 914.99 2396.305 935.117 2398.804 937.491 2401.308 939.908 2403.899 942.282 2409.457 940.969 2415.106 939.619 2420.756 938.311 2423.26 934.833 2425.759 931.316 2428.35 927.837 L2428.35 868.221 2428.35 808.609 C2425.387 803.983 2422.425 799.361 2419.555 794.739 2436.132 792.163 2452.8 789.663 2469.474 787.29 2466.511 792.732 2463.544 798.174 2460.674 803.577 2460.674 825.138 2460.674 846.66 2460.674 868.144 2460.674 889.661 2460.674 911.183 2460.674 932.667 Z M2957.651 759.916 C2962.562 775.586 2967.579 791.294 2972.471 806.926 2977.397 822.673 2982.473 838.516 2987.471 854.182 L2987.471 813.882 2987.471 773.458 C2984.6 769.077 2981.73 764.74 2978.951 760.408 2995.344 760.813 3011.83 761.387 3028.315 761.879 3025.353 766.255 3022.391 770.472 3019.52 774.765 3019.52 796.905 3019.52 819.035 3019.52 841.131 3019.52 863.228 3019.52 885.362 3019.52 907.458 3005.442 906.802 2991.364 906.272 2977.286 905.78 2972.008 890.476 2966.725 875.173 2961.544 859.952 2956.358 844.73 2951.075 829.432 2945.888 814.167 2945.888 827.14 2945.888 840.07 2945.888 853.038 2945.888 866.011 2945.888 878.936 2945.888 891.909 2948.759 896.328 2951.63 900.786 2954.597 905.205 2938.666 904.921 2922.827 904.839 2906.993 904.795 2909.767 900.502 2912.643 896.203 2915.509 891.948 L2915.509 832.047 2915.509 772.107 C2912.643 767.813 2909.767 763.553 2906.993 759.259 2923.845 759.423 2940.702 759.544 2957.651 759.916 Z M2165.414 853.284 C2162.729 859.382 2160.135 865.476 2157.542 871.656 2163.378 899.069 2169.305 926.279 2175.232 953.243 2180.511 920.793 2185.791 888.474 2191.162 856.396 2189.309 853.328 2187.458 850.216 2185.605 847.065 2206.63 841.011 2227.744 835.241 2248.862 829.716 2245.714 836.509 2242.563 843.423 2239.415 850.341 2239.415 875.501 2239.415 900.666 2239.415 925.787 2239.415 950.913 2239.415 976.073 2239.415 1001.199 2242.285 1005.777 2245.25 1010.278 2248.213 1014.741 2231.728 1020.96 2215.242 1027.217 2198.849 1033.807 2201.626 1027.096 2204.499 1020.347 2207.369 1013.593 L2207.369 963.389 2207.369 913.103 C2203.665 933.931 2199.95 954.835 2196.348 975.745 2192.726 996.774 2189.122 1018.012 2185.511 1039.249 2178.564 1042.231 2171.619 1045.179 2164.673 1048.208 2161.061 1029.673 2157.44 1011.016 2153.93 992.317 2150.403 973.54 2146.889 954.594 2143.371 935.566 2143.371 952.954 2143.371 970.346 2143.371 987.695 2143.371 1005.039 2143.371 1022.431 2143.371 1039.78 2146.242 1044.484 2149.206 1049.149 2152.169 1053.733 2135.684 1061.297 2119.198 1069.195 2102.804 1077.049 2105.675 1069.605 2108.64 1062.074 2111.603 1054.591 L2111.603 972.879 C2111.603 945.63 2111.695 918.343 2111.788 891.132 2108.547 885.608 2105.305 880.002 2102.156 874.314 2123.18 867.073 2144.296 860.034 2165.412 853.284 Z" fill="#ffffff" fill-opacity="1" stroke="none"/>
   <path id="path46" d="M3069 719.25 C3036.444 722.087 3016.553 708.318 3006.431 697.998 3016.042 703.85 3029.265 706.412 3043.614 699.556 3033.675 702.692 3017.556 697.887 3006.962 689.82 3017.576 695.359 3032.898 698.915 3047.56 692.204 3018.922 692.971 3004.077 679.964 2996.888 669.832 3006.46 678.676 3022.588 684.74 3040.458 676.201 3033.511 678.396 3023.534 676.703 3014.546 672.727 3022.439 673.88 3032.628 673.132 3045.596 668.506 3009.369 669.239 2994.5 645.691 2994.5 645.691 2994.5 645.691 3011.979 655.702 3031.856 645.3 3006.745 646.892 2994.558 632.153 2989.502 623.165 2997.786 631.41 3011.887 635.733 3024.113 630.595 3017.99 631.521 3011.381 629.828 3005.322 626.417 3011.878 627.98 3019.65 627.98 3027.808 624.029 3014.16 624.366 2996.859 617.815 2987.948 602.521 2994.114 607.944 3001.645 611.524 3011.381 610.834 3005.915 609.97 2999.242 605.792 2993.029 600.109 2998.379 603.119 3005.953 605.821 3015.385 605.184 2996.922 602.391 2990.428 589.075 2990.428 589.075 2990.428 589.075 2994.399 595.849 3011.931 596.688 2990.872 589.76 2977.856 566.217 2977.856 566.217 2977.856 566.217 2988.802 581.646 3007.02 581.042 2993.294 574.911 2985.087 564.055 2985.087 564.055 2985.087 564.055 2991.692 569.507 3002.041 571.36 2992.271 566.902 2985.594 558.251 2981.348 550.677 2986.019 555.501 2991.861 558.092 2998.466 557.031 2992.474 555.173 2986.516 550.137 2981.788 543.831 2986.144 547.584 2991.036 549.987 2995.822 551.502 2984.595 542.871 2976.292 530.202 2972.066 513.683 2969.982 505.529 2969.089 491.133 2967.285 484.123 2965.486 491.133 2964.588 505.529 2962.504 513.683 2958.282 530.202 2949.975 542.871 2938.748 551.502 2943.534 549.987 2948.426 547.584 2952.787 543.831 2948.059 550.137 2942.101 555.173 2936.109 557.031 2942.714 558.097 2948.556 555.501 2953.227 550.677 2948.981 558.251 2942.304 566.902 2932.534 571.36 2942.883 569.507 2949.483 564.055 2949.483 564.055 2949.483 564.055 2941.281 574.911 2927.551 581.042 2945.773 581.646 2956.715 566.217 2956.715 566.217 2956.715 566.217 2943.698 589.76 2922.644 596.688 2940.176 595.849 2944.147 589.075 2944.147 589.075 2944.147 589.075 2937.648 602.391 2919.185 605.184 2928.617 605.821 2936.196 603.119 2941.546 600.109 2935.333 605.792 2928.66 609.97 2923.194 610.834 2932.925 611.524 2940.461 607.944 2946.626 602.521 2937.711 617.815 2920.41 624.371 2906.767 624.029 2914.925 627.975 2922.692 627.98 2929.249 626.417 2923.189 629.828 2916.584 631.521 2910.457 630.595 2922.688 635.733 2936.789 631.41 2945.073 623.165 2940.017 632.153 2927.83 646.892 2902.719 645.3 2922.596 655.702 2940.075 645.691 2940.075 645.691 2940.075 645.691 2925.206 669.239 2888.979 668.506 2901.942 673.132 2912.136 673.88 2920.029 672.727 2911.036 676.703 2901.064 678.396 2894.117 676.201 2911.987 684.74 2928.115 678.676 2937.682 669.832 2930.493 679.964 2915.653 692.971 2887.015 692.204 2901.677 698.915 2916.999 695.359 2927.613 689.82 2917.019 697.887 2900.9 702.692 2890.961 699.556 2905.31 706.412 2918.533 703.85 2928.144 697.998 2918.022 708.318 2895.926 727.143 2863.37 724.311 2875.933 728.711 2896.621 725.633 2913.395 721.194 2901.242 728.59 2885.592 731.663 2871.996 730.042 2895.111 739.831 2917.839 731.34 2930.653 720.142 2919.904 735.581 2899.303 743.271 2883.411 741.327 2895.54 745.312 2912.734 745.799 2924.685 740.309 2924.685 740.309 2919.875 745.447 2910.298 750.952 L2967.285 750.952 3024.272 750.952 C3014.696 745.447 3009.885 740.309 3009.885 740.309 3021.831 745.799 3039.03 745.312 3051.159 741.327 3035.267 743.271 3014.667 735.581 3003.917 720.142 3016.731 731.34 3039.46 739.831 3062.574 730.042 3048.983 731.663 3033.328 728.59 3021.175 721.194 3037.949 725.633 3056.432 723.655 3068.995 719.25 Z" fill="#2a282a" fill-opacity="1" stroke="none"/>
   <path id="path48" d="M2962.673 729.309 C2939.776 731.302 2925.785 721.619 2918.668 714.363 2925.428 718.478 2934.729 720.282 2944.817 715.458 2937.832 717.663 2926.494 714.281 2919.04 708.607 2926.504 712.505 2937.281 715.004 2947.596 710.286 2927.454 710.826 2917.014 701.679 2911.958 694.548 2918.688 700.772 2930.035 705.037 2942.603 699.03 2937.716 700.574 2930.701 699.383 2924.376 696.584 2929.929 697.4 2937.098 696.869 2946.217 693.617 2920.733 694.134 2910.274 677.566 2910.274 677.566 2910.274 677.566 2922.572 684.615 2936.553 677.291 2918.89 678.415 2910.317 668.047 2906.762 661.727 2912.59 667.526 2922.509 670.566 2931.106 666.952 2926.798 667.604 2922.152 666.412 2917.892 664.014 2922.504 665.114 2927.965 665.114 2933.707 662.335 2924.106 662.572 2911.938 657.964 2905.671 647.206 2910.009 651.022 2915.306 653.54 2922.152 653.053 2918.307 652.45 2913.613 649.512 2909.241 645.512 2913.009 647.63 2918.336 649.526 2924.969 649.082 2911.982 647.119 2907.418 637.75 2907.418 637.75 2907.418 637.75 2910.211 642.516 2922.538 643.105 2907.731 638.232 2898.574 621.674 2898.574 621.674 2898.574 621.674 2906.27 632.525 2919.088 632.1 2909.435 627.792 2903.659 620.155 2903.659 620.155 2903.659 620.155 2908.305 623.99 2915.581 625.288 2908.711 622.152 2904.017 616.073 2901.03 610.742 2904.316 614.139 2908.421 615.962 2913.067 615.209 2908.855 613.902 2904.663 610.366 2901.339 605.927 2904.403 608.566 2907.847 610.26 2911.21 611.326 2903.317 605.252 2897.474 596.341 2894.503 584.724 2893.036 578.987 2892.409 568.865 2891.14 563.935 2889.871 568.865 2889.244 578.987 2887.777 584.724 2884.81 596.341 2878.963 605.252 2871.07 611.326 2874.433 610.26 2877.877 608.566 2880.946 605.927 2877.617 610.366 2873.424 613.902 2869.213 615.209 2873.859 615.962 2877.964 614.139 2881.25 610.742 2878.263 616.073 2873.569 622.152 2866.699 625.288 2873.974 623.985 2878.62 620.155 2878.62 620.155 2878.62 620.155 2872.85 627.787 2863.192 632.1 2876.01 632.525 2883.705 621.674 2883.705 621.674 2883.705 621.674 2874.549 638.232 2859.742 643.105 2872.073 642.516 2874.862 637.75 2874.862 637.75 2874.862 637.75 2870.298 647.119 2857.311 649.082 2863.944 649.526 2869.275 647.63 2873.038 645.512 2868.667 649.512 2863.973 652.45 2860.128 653.053 2866.974 653.54 2872.276 651.022 2876.613 647.206 2870.342 657.964 2858.174 662.572 2848.578 662.335 2854.314 665.109 2859.781 665.114 2864.393 664.014 2860.128 666.412 2855.482 667.604 2851.174 666.952 2859.771 670.566 2869.69 667.526 2875.518 661.727 2871.967 668.047 2863.389 678.415 2845.727 677.291 2859.708 684.615 2872.006 677.566 2872.006 677.566 2872.006 677.566 2861.546 694.134 2836.063 693.617 2845.182 696.869 2852.356 697.4 2857.904 696.584 2851.579 699.383 2844.564 700.569 2839.682 699.03 2852.25 705.037 2863.592 700.772 2870.322 694.548 2865.266 701.679 2854.826 710.826 2834.684 710.286 2844.998 715.004 2855.776 712.505 2863.24 708.607 2855.791 714.281 2844.448 717.663 2837.463 715.458 2847.551 720.282 2856.852 718.478 2863.611 714.363 2856.495 721.619 2840.951 734.862 2818.053 732.865 2826.892 735.962 2841.443 733.801 2853.239 730.674 2844.694 735.875 2833.685 738.036 2824.123 736.898 2840.381 743.787 2856.365 737.815 2865.377 729.936 2857.817 740.796 2843.329 746.204 2832.156 744.839 2840.685 747.637 2852.78 747.98 2861.18 744.12 2861.18 744.12 2857.798 747.734 2851.063 751.603 L2891.145 751.603 2931.227 751.603 C2924.492 747.734 2921.11 744.12 2921.11 744.12 2929.509 747.98 2941.604 747.637 2950.134 744.839 2938.96 746.204 2924.472 740.796 2916.912 729.936 2925.925 737.81 2941.908 743.782 2958.167 736.898 2948.605 738.036 2937.595 735.875 2929.051 730.674 2940.847 733.801 2953.844 732.406 2962.682 729.309 Z" fill="#2a282a" fill-opacity="1" stroke="none"/>
   <path id="path50" d="M2738.247 483.158 C2748.441 468.54 2750.221 462.726 2748.431 455.654 2746.646 448.576 2746.646 448.576 2746.646 448.576 2746.646 448.576 2750.313 454.8 2752.378 461.679 2754.158 449.613 2749.575 440.013 2749.575 440.013 2749.575 440.013 2756.917 446.338 2755.981 461.8 2758.867 454.235 2758.071 440.625 2758.071 440.625 2758.071 440.625 2762.229 445.739 2759.779 459.127 2762.548 452.952 2763.913 444.171 2763.913 444.171 2763.913 444.171 2766.46 449.855 2763.715 459.61 2766.774 453.777 2768.998 447.809 2768.998 447.809 2768.998 447.809 2770.725 452.383 2766.899 461.337 2770.6 456.652 2774.194 451.862 2774.194 451.862 2774.194 451.862 2773.205 456.686 2767.637 466.065 2769.929 463.783 2771.709 462.08 2771.709 462.08 2771.709 462.08 2771.266 465.578 2767.358 471.98 2768.685 473.263 2770.151 474.995 2770.151 474.995 2770.151 474.995 2768.318 475.048 2766.711 475.034 2767.917 476.264 2768.429 477.822 2768.429 477.822 2768.429 477.822 2767.025 478.372 2765.645 478.237 2766.229 479.313 2767.194 480.929 2767.194 480.929 2767.194 480.929 2765.713 481.151 2764.4 481.228 2765.143 482.483 2766.031 484.079 2766.031 484.079 2766.031 484.079 2764.666 484.538 2763.329 484.673 2764.092 485.647 2764.873 486.815 2764.873 486.815 2764.873 486.815 2763.286 487.076 2761.703 487.259 2762.34 488.108 2762.929 489.049 2762.929 489.049 2762.929 489.049 2761.207 489.377 2759.513 489.594 2760.623 490.298 2761.144 490.766 2761.144 490.766 2761.144 490.766 2759.281 491.283 2757.395 491.707 2758.428 492.257 2759.267 492.807 2759.267 492.807 2759.267 492.807 2757.246 493.598 2754.819 493.965 2756.102 494.645 2757.221 495.306 2757.221 495.306 2757.221 495.306 2754.78 496.025 2752.146 496.406 2753.796 497.038 2755.282 497.776 2755.282 497.776 2755.282 497.776 2753.314 498.929 2750.612 499.335 2751.828 499.962 2752.836 500.56 2752.836 500.56 2752.836 500.56 2750.742 501.192 2748.166 501.675 2750.096 502.437 2751.562 503.088 2751.562 503.088 2751.562 503.088 2748.962 503.918 2746.14 504.048 2747.23 504.753 2747.732 505.119 2747.732 505.119 2747.732 505.119 2746.545 505.462 2744.876 505.862 2752.03 508.405 2759.537 507.816 2759.537 507.816 2759.537 507.816 2757.038 509.254 2753.748 509.939 2757.511 511.512 2761.038 514.513 2761.038 514.513 2761.038 514.513 2758.264 514.073 2754.988 513.552 2757.844 515.752 2760.545 518.671 2760.545 518.671 2760.545 518.671 2757.564 518.276 2754.467 517.75 2756.561 520.181 2758.264 522.719 2758.264 522.719 2758.264 522.719 2755.823 522.039 2753.13 520.973 2756.479 524.311 2758.153 526.405 2758.153 526.405 2758.153 526.405 2754.935 525.734 2751.572 524.113 2753.782 527.225 2755.572 530.974 2755.572 530.974 2755.572 530.974 2751.683 529.073 2748.46 527.129 2749.772 530.356 2750.679 533.748 2750.679 533.748 2750.679 533.748 2747.071 530.178 2743.568 527.529 2744.962 530.776 2745.151 534.134 2745.151 534.134 2745.151 534.134 2742.951 531.07 2740.167 528.369 2740.963 531.929 2740.524 535.157 2740.524 535.157 2740.524 535.157 2738.744 531.606 2736.003 527.712 2735.699 530.313 2734.006 532.146 2734.006 532.146 2734.006 532.146 2733.316 529.276 2732.515 526.241 2731.724 527.92 2729.915 529.435 2729.915 529.435 2729.915 529.435 2729.78 526.738 2728.188 521.016 2727.662 522.319 2727.261 523.197 2727.261 523.197 2727.261 523.197 2726.986 522.632 2726.47 521.431 2725.959 524.123 2724.82 526.453 2724.82 526.453 2724.82 526.453 2724.405 524.9 2723.947 522.878 2723.136 525.257 2722.253 527.143 2722.253 527.143 2722.253 527.143 2721.834 526.038 2721.404 524.736 2720.647 527.249 2719.291 528.904 2719.291 528.904 2719.291 528.904 2718.799 527.317 2718.428 525.594 2717.704 528.05 2716.691 530.245 2716.691 530.245 2716.691 530.245 2716.218 529.03 2715.755 527.65 2715.074 529.912 2714.047 531.688 2714.047 531.688 2714.047 531.688 2713.642 530.761 2713.265 529.652 2712.604 531.379 2711.862 533.063 2711.862 533.063 2711.862 533.063 2711.49 532.46 2710.979 531.244 2710.54 532.826 2709.994 534.414 2709.994 534.414 2709.994 534.414 2709.189 533.646 2708.475 532.855 2708.079 534.341 2707.616 535.808 2707.616 535.808 2707.616 535.808 2706.622 534.814 2705.807 533.868 2705.498 535.133 2704.876 536.344 2704.876 536.344 2704.876 536.344 2703.486 535.152 2702.401 534.172 2702.15 535.417 2701.74 536.797 2701.74 536.797 2701.74 536.797 2700.341 535.523 2699.405 534.737 2699.342 536.092 2698.633 537.328 2698.633 537.328 2698.633 537.328 2697.229 536.503 2696.23 535.084 2696.023 536.633 2695.724 538.389 2695.724 538.389 2695.724 538.389 2694.286 536.604 2693.249 535.055 2686.663 537.463 2683.3 537.149 2683.3 537.149 2683.3 537.149 2685.158 535.793 2687.623 534.076 2677.993 537.443 2673.299 537.371 2673.299 537.371 2673.299 537.371 2678.322 534.93 2683.257 532.358 2674.269 534.143 2670.178 531.509 2670.178 531.509 2670.178 531.509 2676.126 530.636 2682.061 528.928 2672.46 529.497 2667.438 525.84 2667.438 525.84 2667.438 525.84 2675.924 526.391 2682.143 525.035 2669.15 524.552 2664.881 519.467 2664.881 519.467 2664.881 519.467 2677.641 523.12 2685.187 521.947 2670.438 519.569 2665.464 511.16 2665.464 511.16 2665.464 511.16 2673.912 517.605 2685.563 518.454 2679.34 515.005 2673.955 510.156 2673.955 510.156 2673.955 510.156 2673.955 510.156 2680.406 513.374 2686.851 516.597 2692.583 516.119 2707.794 509.408 2710.308 508.299 2713.034 506.716 2715.818 504.82 2712.378 500.656 2711.032 499.639 2710.212 499.412 2709.107 499.108 2707.399 499.846 2707.399 499.846 2708.383 497.675 2709.97 496.599 2712.354 497.39 2712.354 497.39 2713.497 495.456 2716.749 495.33 2719.036 495.239 2723.822 495.895 2726.451 496.295 2731.111 492.006 2735.323 487.351 2738.251 483.153 Z" fill="#2a282a" fill-opacity="1" stroke="none"/>
   <path id="path52" d="M2263.33 1080.566 L2279.336 1062.161 C2281.454 1059.729 2283.329 1059.734 2285.033 1061.215 2286.738 1062.701 2287.003 1064.554 2284.885 1066.99 L2268.881 1085.391 C2266.763 1087.827 2264.888 1087.823 2263.184 1086.337 2261.479 1084.855 2261.213 1082.998 2263.33 1080.566 Z M2321.12 1082.014 L2315.375 1077.845 2295.187 1105.688 C2290.945 1111.535 2291.445 1117.001 2297.086 1121.092 2302.727 1125.183 2308.076 1123.958 2312.318 1118.111 L2332.506 1090.269 2327.074 1086.332 2306.621 1114.536 C2304.728 1117.146 2302.897 1117.252 2301.068 1115.93 2299.24 1114.603 2298.772 1112.833 2300.667 1110.218 Z M2350.304 1101.317 L2347.071 1106.903 2353.498 1110.618 2334.103 1144.125 2340.25 1147.68 2359.639 1114.174 2366.061 1117.889 2369.293 1112.307 Z M2392.291 1130.148 L2395.943 1131.779 C2398.003 1132.695 2398.766 1134.311 2397.454 1137.254 L2387.886 1158.704 C2386.57 1161.647 2384.857 1162.158 2382.797 1161.237 L2379.145 1159.606 Z M2388.437 1121.362 L2370.031 1162.607 2380.283 1167.181 C2386.767 1170.075 2391.553 1167.9 2394.496 1161.3 L2403.802 1140.443 C2406.75 1133.844 2405.173 1128.831 2398.689 1125.936 Z M2425.05 1173.284 L2432.851 1150.179 C2433.878 1147.12 2435.615 1146.416 2437.757 1147.135 2439.899 1147.859 2440.85 1149.475 2439.818 1152.534 L2432.021 1175.638 C2430.989 1178.692 2429.252 1179.401 2427.11 1178.677 2424.968 1177.959 2424.017 1176.343 2425.05 1173.284 Z M2425.981 1148.336 L2418.469 1170.587 C2416.158 1177.433 2418.445 1182.566 2425.05 1184.79 2431.65 1187.019 2436.58 1184.327 2438.891 1177.476 L2446.398 1155.226 C2448.709 1148.38 2446.422 1143.251 2439.822 1141.022 2433.218 1138.793 2428.292 1141.49 2425.981 1148.336 Z M2470.767 1185.586 L2476.32 1161.84 C2477.053 1158.699 2478.718 1157.826 2480.913 1158.342 2483.113 1158.854 2484.217 1160.373 2483.479 1163.514 L2477.931 1187.26 C2477.198 1190.401 2475.533 1191.274 2473.333 1190.758 2471.138 1190.247 2470.033 1188.727 2470.767 1185.586 Z M2469.305 1160.663 L2463.959 1183.531 C2462.314 1190.57 2465.083 1195.457 2471.867 1197.04 2478.65 1198.627 2483.301 1195.472 2484.946 1188.438 L2490.292 1165.569 C2491.937 1158.53 2489.167 1153.643 2482.384 1152.061 2475.596 1150.474 2470.95 1153.629 2469.305 1160.663 Z M2521.226 1165.265 L2524.623 1165.666 C2527.122 1165.965 2528.043 1167.504 2527.662 1170.707 L2527.136 1175.127 C2526.707 1178.716 2524.97 1179.676 2522.341 1179.367 L2519.586 1179.039 Z M2524.338 1204.619 L2531.517 1205.473 C2531.01 1203.721 2531.136 1202.115 2531.396 1199.934 L2532.216 1193.016 C2532.776 1188.341 2532.028 1184.805 2528.68 1182.913 2531.994 1181.813 2533.828 1178.977 2534.373 1174.364 L2534.793 1170.843 C2535.618 1163.924 2532.882 1160.151 2525.578 1159.283 L2514.945 1158.019 2509.604 1202.863 2516.653 1203.702 2518.828 1185.446 2521.26 1185.736 C2524.463 1186.117 2525.694 1187.82 2525.197 1191.988 L2524.357 1199.032 C2523.923 1202.684 2524.097 1203.422 2524.343 1204.619 Z M2613.21 1190.382 L2613.905 1167.297 2620.003 1189.571 Z M2630.983 1202.694 L2618.469 1158.699 2608.159 1159.925 2606.321 1205.627 2612.79 1204.86 2613.041 1196.576 2621.687 1195.549 2623.872 1203.538 Z M2655.029 1159.611 L2658.927 1158.709 C2661.127 1158.202 2662.709 1159.032 2663.438 1162.173 L2668.716 1185.055 C2669.444 1188.201 2668.383 1189.639 2666.183 1190.145 L2662.285 1191.043 2655.034 1159.611 Z M2646.663 1154.922 L2656.823 1198.926 2667.761 1196.403 C2674.679 1194.806 2677.188 1190.189 2675.562 1183.15 L2670.424 1160.894 C2668.798 1153.851 2664.519 1150.802 2657.605 1152.398 Z M2712.011 1176.063 L2695.092 1142.894 2688.303 1145.181 2709.353 1185.745 2719.378 1182.364 2711.538 1137.341 2705.363 1139.425 2712.011 1176.068 Z M2746.115 1144.226 L2740.929 1132.763 2752.098 1127.711 2749.44 1121.83 2731.801 1129.81 2750.419 1170.958 2768.057 1162.979 2765.394 1157.102 2754.225 1162.154 2748.774 1150.102 2757.651 1146.088 2754.992 1140.212 Z M2781.904 1119.732 L2805.785 1143.772 2812.119 1140.159 2789.748 1100.926 2784.258 1104.057 2797.646 1127.543 2777.923 1107.67 2770.19 1112.08 2792.561 1151.313 2798.109 1148.148 Z M2807.502 1089.627 L2811.275 1094.861 2817.296 1090.524 2839.933 1121.927 2845.688 1117.778 2823.052 1086.375 2829.073 1082.033 2825.3 1076.799 Z M2847.83 1058.644 L2842.437 1063.256 2864.784 1089.395 C2869.483 1094.885 2874.91 1095.677 2880.208 1091.147 2885.505 1086.616 2885.563 1081.131 2880.869 1075.641 L2858.517 1049.501 2853.417 1053.863 2876.063 1080.344 C2878.162 1082.795 2877.834 1084.6 2876.121 1086.066 2874.404 1087.538 2872.571 1087.576 2870.472 1085.125 Z M2884.67 1032.601 L2887.034 1030.136 C2888.781 1028.322 2890.561 1028.515 2892.891 1030.749 L2896.104 1033.832 C2898.705 1036.331 2898.43 1038.299 2896.596 1040.209 L2894.676 1042.212 Z M2917.955 1053.829 L2922.958 1048.619 C2921.259 1047.967 2920.048 1046.896 2918.466 1045.376 L2913.439 1040.552 C2910.042 1037.291 2906.771 1035.756 2903.245 1037.291 2904.364 1033.981 2903.206 1030.811 2899.853 1027.593 L2897.296 1025.138 C2892.269 1020.308 2887.613 1020.222 2882.519 1025.529 L2875.098 1033.253 2907.678 1064.535 2912.594 1059.416 2899.327 1046.679 2901.025 1044.909 C2903.264 1042.583 2905.363 1042.631 2908.387 1045.536 L2913.506 1050.452 C2916.16 1052.999 2916.85 1053.303 2917.955 1053.829 Z M2923.691 1006.173 L2913.81 998.386 2921.399 988.761 2916.329 984.766 2904.349 999.968 2939.819 1027.922 2951.803 1012.724 2946.738 1008.73 2939.149 1018.354 2928.757 1010.167 2934.787 1002.516 2929.721 998.526 Z M2273.685 1057.848 L2258.272 1075.568 C2253.53 1081.02 2253.692 1086.631 2258.95 1091.204 2264.208 1095.778 2269.791 1095.161 2274.532 1089.709 L2289.944 1071.989 C2294.687 1066.537 2294.524 1060.921 2289.267 1056.347 2284.009 1051.779 2278.427 1052.391 2273.685 1057.848" fill="#2a282a" fill-opacity="1" stroke="none"/>
  </g>
 </g>
</svg>
